<?xml version="1.0" encoding="UTF-8"?>
<svg version="1.1" xmlns="http://www.w3.org/2000/svg" width="225" height="225">
<path d="M0 0 C74.25 0 148.5 0 225 0 C225 74.25 225 148.5 225 225 C150.75 225 76.5 225 0 225 C0 150.75 0 76.5 0 0 Z " fill="#FEFEFE" transform="translate(0,0)"/>
<path d="M0 0 C12.21 0 24.42 0 37 0 C37.25 16.25 37.25 16.25 37.29785156 21.36035156 C37.32722887 22.70381076 37.35805604 24.04723938 37.390625 25.390625 C37.39231689 26.42872314 37.39231689 26.42872314 37.39404297 27.48779297 C37.49425775 30.87309732 37.78128287 32.71217793 39.85449219 35.44042969 C41.96902363 37.20995089 41.96902363 37.20995089 44.9375 37.5625 C49.57884868 36.71000739 51.77939203 33.73223494 54.39672852 30.01782227 C55.90543554 27.69971535 57.36599873 25.35740102 58.8125 23 C59.29525391 22.22527344 59.77800781 21.45054688 60.27539062 20.65234375 C61.01499023 19.46318359 61.01499023 19.46318359 61.76953125 18.25 C62.3020752 17.43168701 62.83461914 16.61337402 63.38330078 15.77026367 C65.11945987 12.95650895 65.11945987 12.95650895 66.37841797 9.50512695 C68.1972903 5.4413526 69.63327614 2.9435686 73 0 C80.20431638 -2.16309269 88.09499115 -1.21461626 95.5 -0.8125 C97.58315357 -0.74723951 99.6665027 -0.68793276 101.75 -0.63476562 C106.83818151 -0.49198291 111.9169407 -0.268047 117 0 C115.51516225 4.22282948 113.33149709 7.72873291 110.81640625 11.39453125 C109.91117197 12.73358321 109.00641795 14.07295991 108.10205078 15.41259766 C107.60682922 16.14351624 107.11160767 16.87443481 106.60137939 17.62750244 C101.6551788 24.95546536 96.79064278 32.33872416 91.91040039 39.71069336 C90.58114619 41.71633578 89.24972026 43.72054036 87.91625977 45.72338867 C85.96873136 48.64929852 84.02855185 51.57995955 82.08984375 54.51171875 C81.49203598 55.40646408 80.89422821 56.30120941 80.27830505 57.22306824 C79.73005569 58.05526382 79.18180634 58.88745941 78.61694336 59.74487305 C78.13414413 60.4724028 77.65134491 61.19993256 77.15391541 61.94950867 C75.98516135 64.02636808 75.30686441 65.63827004 75 68 C76.42573424 70.86513636 76.42573424 70.86513636 78.6015625 73.84765625 C78.98942932 74.41194336 79.37729614 74.97623047 79.7769165 75.55761719 C81.04795405 77.40096525 82.33627115 79.23148778 83.625 81.0625 C84.50789288 82.33631368 85.38955958 83.61097808 86.27001953 84.88647461 C88.02728251 87.42872601 89.79086127 89.96638102 91.56054688 92.5 C94.69991574 96.99731146 97.78779338 101.52929382 100.875 106.0625 C104.12010612 110.8096237 107.37741397 115.54803908 110.6484375 120.27734375 C111.25059082 121.15060303 111.85274414 122.0238623 112.47314453 122.92358398 C113.62996464 124.60095725 114.78965142 126.27635828 115.95263672 127.94946289 C116.46842285 128.69832764 116.98420898 129.44719238 117.515625 130.21875 C117.97227539 130.87810547 118.42892578 131.53746094 118.89941406 132.21679688 C120 134 120 134 121 137 C114.77507694 137.37303626 108.55673758 137.64388518 102.32324219 137.82397461 C100.20783159 137.89906361 98.09319091 138.00118697 95.98046875 138.1315918 C79.02057916 139.15158516 79.02057916 139.15158516 74.15637207 135.68676758 C70.94352159 132.25280836 68.93711495 128.25804269 66.97845459 124.01797485 C65.46756809 120.90190692 63.55329645 118.1762657 61.59375 115.3203125 C59.51727429 112.1780699 57.44135426 109.03562993 55.375 105.88671875 C54.7046875 104.87480469 54.034375 103.86289063 53.34375 102.8203125 C52.74755859 101.91555176 52.15136719 101.01079102 51.53710938 100.07861328 C50.16379542 97.89304303 50.16379542 97.89304303 48 97 C44.62177584 96.85624578 42.22609045 96.92463652 39 98 C37.75534698 101.73395906 37.76780088 105.27364642 37.68359375 109.16796875 C37.66494263 109.87264282 37.6462915 110.57731689 37.6270752 111.30334473 C37.55886689 113.93127107 37.49866114 116.5594002 37.4375 119.1875 C37.293125 125.065625 37.14875 130.94375 37 137 C24.46 137 11.92 137 -1 137 C-1 109.94 -1 82.88 -1 55 C6.92 54.67 14.84 54.34 23 54 C26.11496916 49.32754625 25.32850857 44.49414246 25.3125 39 C25.32861328 37.89398438 25.34472656 36.78796875 25.36132812 35.6484375 C25.36197266 34.58882812 25.36261719 33.52921875 25.36328125 32.4375 C25.36626221 31.46683594 25.36924316 30.49617188 25.37231445 29.49609375 C25.16798863 27.01571276 25.16798863 27.01571276 23.91479492 25.22265625 C21.38154881 23.41930264 21.38154881 23.41930264 15 23 C15 17.06 15 11.12 15 5 C12.29816945 3.64908472 9.88191794 3.66141942 6.875 3.4375 C5.23144531 3.31181641 5.23144531 3.31181641 3.5546875 3.18359375 C2.71164063 3.12300781 1.86859375 3.06242187 1 3 C0.67 2.01 0.34 1.02 0 0 Z " fill="#0B7CC1" transform="translate(67,45)"/>
<path d="M0 0 C13.61557061 5.31399069 22.88580891 14.90577287 32.3125 25.8125 C29.60765313 27.16492344 27.3131681 26.8125 24.3125 26.8125 C23.3225 27.1425 22.3325 27.4725 21.3125 27.8125 C20.06784698 31.54645906 20.08030088 35.08614642 19.99609375 38.98046875 C19.97744263 39.68514282 19.9587915 40.38981689 19.9395752 41.11584473 C19.87136689 43.74377107 19.81116114 46.3719002 19.75 49 C19.605625 54.878125 19.46125 60.75625 19.3125 66.8125 C6.7725 66.8125 -5.7675 66.8125 -18.6875 66.8125 C-18.6875 44.7025 -18.6875 22.5925 -18.6875 -0.1875 C-13.40554354 -2.82847823 -5.48820725 -1.71627683 0 0 Z " fill="#143562" transform="translate(84.6875,115.1875)"/>
<path d="M0 0 C3.96 0 7.92 0 12 0 C12.09765625 3.61328125 12.09765625 3.61328125 12.1953125 7.2265625 C13.38690245 11.33349875 15.32890282 13.77854336 19 16 C22.61391528 16.81576593 26.11875091 16.84015912 29.8125 16.8125 C31.71488744 16.83661298 33.61723946 16.86378444 35.51953125 16.89453125 C36.35589111 16.89300049 37.19225098 16.89146973 38.05395508 16.88989258 C40 17 40 17 41 18 C41.08713831 19.70772358 41.10700007 21.41898649 41.09765625 23.12890625 C41.09443359 24.16337891 41.09121094 25.19785156 41.08789062 26.26367188 C41.07532227 27.8965918 41.07532227 27.8965918 41.0625 29.5625 C41.05798828 30.65498047 41.05347656 31.74746094 41.04882812 32.87304688 C41.03699826 35.58208495 41.02051543 38.29101599 41 41 C37.18751574 41.02887236 33.3750593 41.04675492 29.5625 41.0625 C28.47388672 41.07087891 27.38527344 41.07925781 26.26367188 41.08789062 C25.22919922 41.09111328 24.19472656 41.09433594 23.12890625 41.09765625 C22.17056885 41.10289307 21.21223145 41.10812988 20.22485352 41.11352539 C18 41 18 41 17 40 C16.91560977 38.50848219 16.89179701 37.01343206 16.89453125 35.51953125 C16.87970703 34.60236328 16.86488281 33.68519531 16.84960938 32.74023438 C16.82511923 30.80809089 16.81951556 28.87560389 16.83398438 26.94335938 C16.72579852 22.24547077 16.56784802 18.92827704 13.28515625 15.37890625 C10.50213262 13.06020356 8.2990946 12.22429985 4.625 12.125 C2.335625 12.063125 2.335625 12.063125 0 12 C0 8.04 0 4.08 0 0 Z " fill="#5DA6D9" transform="translate(48,55)"/>
<path d="M0 0 C11.50725303 -0.73450551 21.52895354 4.76387814 30 12.1875 C34.99232492 16.83552665 39.54222158 21.84232883 44 27 C41.29515313 28.35242344 39.0006681 28 36 28 C35.01 28.33 34.02 28.66 33 29 C33 29.66 33 30.32 33 31 C32.34 31 31.68 31 31 31 C29.59765625 28.91796875 29.59765625 28.91796875 28.0625 26.1875 C26.02094398 22.51936093 26.02094398 22.51936093 23.30859375 19.36328125 C22 18 22 18 22 15 C20.68 14.34 19.36 13.68 18 13 C18 12.34 18 11.68 18 11 C17.41863281 10.88398437 16.83726563 10.76796875 16.23828125 10.6484375 C13.85017489 9.95659517 12.24460494 9.00757562 10.1875 7.625 C6.57184638 5.28466135 3.00065369 3.58359209 -1 2 C-0.67 1.34 -0.34 0.68 0 0 Z " fill="#1B2F4F" transform="translate(73,114)"/>
<path d="M0 0 C2.31 0 4.62 0 7 0 C7.309375 1.134375 7.61875 2.26875 7.9375 3.4375 C8.62924531 6.78775099 8.62924531 6.78775099 10 8 C14.32490853 8.4652292 18.65935537 8.70500473 23 9 C23 13.29 23 17.58 23 22 C18.38 22 13.76 22 9 22 C8.8046875 18.6796875 8.609375 15.359375 8.4140625 12.0390625 C8.29782654 8.89437681 8.29782654 8.89437681 6 7 C4.01178687 6.60235737 2.01055661 6.26224651 0 6 C0 4.02 0 2.04 0 0 Z " fill="#6BADDA" transform="translate(57,43)"/>
<path d="M0 0 C6.93 0.495 6.93 0.495 14 1 C14 5.29 14 9.58 14 14 C9.71 14 5.42 14 1 14 C0.67 9.38 0.34 4.76 0 0 Z " fill="#61A7D9" transform="translate(45,72)"/>
<path d="M0 0 C2.64 0 5.28 0 8 0 C8 2.64 8 5.28 8 8 C5.36 8 2.72 8 0 8 C0 5.36 0 2.72 0 0 Z " fill="#6DADDA" transform="translate(37,47)"/>
<path d="M0 0 C2.31 0 4.62 0 7 0 C7 2.31 7 4.62 7 7 C4.69 7 2.38 7 0 7 C0 4.69 0 2.38 0 0 Z " fill="#65A9D8" transform="translate(36,63)"/>
<path d="M0 0 C1.98 0 3.96 0 6 0 C6 1.98 6 3.96 6 6 C4.02 6 2.04 6 0 6 C0 4.02 0 2.04 0 0 Z " fill="#58A3D7" transform="translate(57,43)"/>
</svg>
